<svg width="1em" height="1em" viewBox="0 0 14 13" fill="none" xmlns="http://www.w3.org/2000/svg" style="font-size: 15px;"><path fill-rule="evenodd" clip-rule="evenodd" d="M1.419 5.839a.568.568 0 0 1-.506.587c-.287.014-.56-.204-.574-.505-.013-.068-.123-1.75.998-2.966.752-.806 1.845-1.244 3.253-1.244H11V.358c0-.109.15-.205.246-.246a.924.924 0 0 1 .205-.027c.054 0 .109.014.164.055l2.282 1.886a.267.267 0 0 1 .096.205.26.26 0 0 1-.11.205L11.587 4.28c-.068.054-.26.068-.355.027-.096-.041-.246-.137-.246-.246V2.668H4.589c-1.093 0-1.913.383-2.446.957-.785.852-.728 2.131-.725 2.21v.004Zm11.477.52a.568.568 0 0 1 .506-.588.56.56 0 0 1 .588.505v.02c.008.2.07 1.772-1.012 2.933-.752.806-1.845 1.23-3.253 1.23h-6.41v1.353c0 .109-.15.205-.246.245a1.052 1.052 0 0 1-.205.028.263.263 0 0 1-.164-.055L.418 10.185a.267.267 0 0 1-.096-.205.26.26 0 0 1 .11-.205l2.296-1.859a.457.457 0 0 1 .355-.027c.096.041.246.137.246.246v1.367h6.397c1.093 0 1.913-.37 2.446-.943.785-.839.728-2.118.725-2.197v-.004Z" fill="#4C4C4C"></path></svg>