<svg width="1em" height="1em" viewBox="0 0 12 16" fill="none" xmlns="http://www.w3.org/2000/svg" style="font-size: 15px;"><path d="M7.103 14.984h-.077a.384.384 0 0 1-.28-.652c.854-1.103.73-1.523.574-2.035-.046-.171-.108-.357-.14-.575a2.703 2.703 0 0 0-.077.761.388.388 0 0 1-.28.389.406.406 0 0 1-.45-.187c-.434-.808-.697-1.553-.604-2.485-.233.528-.249 1.18-.264 1.77 0 .42-.016.777-.109 1.073a.382.382 0 0 1-.372.28.382.382 0 0 1-.373-.28c-.046-.171-.093-.311-.124-.45a3.385 3.385 0 0 0-.093-.343c-.031.156-.062.28-.093.42-.124.512-.217.854.543 1.678a.4.4 0 0 1 .062.45.386.386 0 0 1-.341.202h-.062c-1.21-.202-2.328-.932-3.057-1.988-.606-.87-.854-1.833-.683-2.672.155-.777.419-1.43.683-2.066.574-1.368 1.055-2.533.155-4.63-.062-.124-.031-.28.046-.388a.406.406 0 0 1 .357-.156c2.281.327 2.53 2.548 2.607 3.93.668-1.568.59-3.029-.17-5.53a.369.369 0 0 1 .14-.42.4.4 0 0 1 .434-.03c3.042 1.833 2.84 3.635 2.67 5.22-.063.574-.125 1.118-.016 1.646.263-1.445.993-2.408 2.11-2.703a.418.418 0 0 1 .373.093c.108.093.14.233.108.373-.434 1.895-.155 2.548.186 3.293.233.513.497 1.088.513 2.05.061 2.098-1.956 3.605-3.896 3.962Zm2.67-5.7c-.31-.7-.637-1.43-.389-3.015-.682.529-1.04 1.616-.993 3.076a.389.389 0 0 1-.683.264c-.977-1.165-.853-2.314-.744-3.417.14-1.305.263-2.532-1.444-3.868.668 2.625.45 4.178-.745 6.198a.382.382 0 0 1-.279.186.42.42 0 0 1-.326-.108c-.217-.218-.248-.606-.264-1.243C3.844 5.943 3.69 4.638 2.65 4.11c.621 1.957.094 3.231-.419 4.474-.248.59-.496 1.212-.636 1.926-.124.622.078 1.383.559 2.066a4.12 4.12 0 0 0 1.52 1.32c-.248-.59-.155-1.025-.046-1.413.093-.342.155-.652.016-1.103a.362.362 0 0 1 .124-.404c.124-.093.279-.124.419-.046.264.124.45.248.59.388.062-.963.325-2.113 1.582-2.703a.383.383 0 0 1 .435.078c.109.109.155.28.093.435-.341.823-.403 1.444-.28 2.035.218-.482.59-.84 1.134-.886a.364.364 0 0 1 .341.156.425.425 0 0 1 .047.388c-.249.59-.156.9-.032 1.305.171.559.264 1.072-.124 1.848 1.133-.481 2.328-1.444 2.282-2.873-.063-.87-.264-1.336-.482-1.818Z" fill="#4D4D4D" stroke="#4D4D4D" stroke-width="0.1"></path></svg>