<svg width="1em" height="1em" viewBox="0 0 65 18" fill="none" xmlns="http://www.w3.org/2000/svg" style="height: 20px; width: 65px;"><path d="M65 0H0v18h52.456L65 0Z" fill="#FD5193" fill-opacity="0.7"></path><path d="M65 18H0V0h52.456L65 18Z" fill="#FD5193" fill-opacity="0.7"></path><path d="M7.069 4.89V12H5.853V4.89h1.216Zm2.231 0v.977H3.64v-.976H9.3Zm1.65 2.833V12H9.774V6.717h1.123l.053 1.006Zm1.617-1.04-.01 1.093a3.06 3.06 0 0 0-.479-.04c-.201.001-.379.03-.532.09a1.004 1.004 0 0 0-.62.624c-.055.15-.088.318-.098.503l-.268.02c0-.332.032-.64.097-.923.066-.283.163-.532.293-.747.134-.215.3-.383.498-.503.202-.12.435-.18.699-.18a1.456 1.456 0 0 1 .42.063Zm2.968 5.415c-.39 0-.744-.064-1.06-.19-.312-.131-.579-.312-.8-.543a2.403 2.403 0 0 1-.503-.815 2.855 2.855 0 0 1-.176-1.01v-.196c0-.414.06-.788.18-1.123.121-.336.289-.622.504-.86.215-.24.469-.424.762-.551.293-.127.61-.19.952-.19.377 0 .708.063.99.19.284.127.518.306.704.537.189.228.329.5.42.815.094.316.142.664.142 1.045v.503h-4.082v-.845h2.92v-.093a1.655 1.655 0 0 0-.128-.595 1.012 1.012 0 0 0-.346-.45c-.156-.113-.365-.17-.625-.17-.195 0-.37.042-.523.127-.15.081-.275.2-.376.356-.1.156-.179.345-.234.566a3.182 3.182 0 0 0-.078.738v.195c0 .231.03.446.093.645.065.195.16.366.283.512.124.147.273.262.45.347.175.081.375.122.6.122.283 0 .535-.057.756-.17.222-.115.414-.276.577-.484l.62.6a2.42 2.42 0 0 1-.444.479c-.183.15-.406.272-.67.366a2.66 2.66 0 0 1-.908.142Zm4.2-4.253V12h-1.177V6.717h1.108l.069 1.128Zm-.21 1.318-.381-.005c.003-.374.055-.718.156-1.03.104-.313.247-.581.43-.806.185-.224.407-.397.664-.517.257-.124.543-.186.86-.186.253 0 .482.036.688.108.208.068.385.18.532.336.15.157.264.36.342.61.078.248.117.553.117.914V12H21.75V8.582c0-.254-.037-.454-.112-.6a.628.628 0 0 0-.318-.318 1.19 1.19 0 0 0-.512-.098c-.202 0-.383.043-.542.127-.16.085-.295.2-.405.347a1.68 1.68 0 0 0-.25.508 2.098 2.098 0 0 0-.087.615Zm7.832 1.743V4.5h1.181V12h-1.07l-.111-1.094Zm-3.438-1.489v-.103c0-.4.047-.765.142-1.093.094-.332.23-.617.41-.855.179-.24.397-.425.654-.552.257-.13.547-.195.87-.195.318 0 .598.062.84.186.24.123.445.3.614.532.17.228.305.501.406.82.1.316.172.668.215 1.055v.327a5.275 5.275 0 0 1-.215 1.035c-.101.313-.236.583-.406.81-.169.229-.376.404-.62.528-.24.124-.522.186-.845.186-.319 0-.607-.067-.864-.2a1.91 1.91 0 0 1-.65-.562 2.642 2.642 0 0 1-.41-.85 3.86 3.86 0 0 1-.14-1.069Zm1.177-.103v.103c0 .24.021.465.063.674.046.208.116.392.21.552.095.156.217.28.366.37.154.089.336.133.547.133.267 0 .487-.06.66-.176a1.2 1.2 0 0 0 .405-.474c.1-.202.17-.426.205-.674v-.884a2.154 2.154 0 0 0-.122-.537 1.437 1.437 0 0 0-.24-.434 1.008 1.008 0 0 0-.375-.293 1.178 1.178 0 0 0-.523-.108c-.215 0-.397.046-.547.137-.15.091-.273.217-.37.376-.095.16-.165.345-.21.557a3.218 3.218 0 0 0-.07.678Zm5.933-2.597V12h-1.182V6.717h1.181Zm-1.26-1.387c0-.179.058-.327.176-.444.12-.12.286-.18.497-.18.209 0 .373.06.494.18.12.117.18.265.18.444 0 .176-.06.322-.18.44-.12.117-.285.175-.494.175-.211 0-.377-.058-.497-.175a.596.596 0 0 1-.176-.44Zm3.715 2.515V12h-1.176V6.717h1.108l.069 1.128Zm-.21 1.318-.38-.005c.003-.374.055-.718.156-1.03.104-.313.247-.581.43-.806.185-.224.407-.397.664-.517.257-.124.543-.186.86-.186.253 0 .483.036.688.108.208.068.385.18.532.336.15.157.264.36.342.61.078.248.117.553.117.914V12H35.5V8.582c0-.254-.037-.454-.112-.6a.628.628 0 0 0-.318-.318 1.19 1.19 0 0 0-.512-.098c-.202 0-.383.043-.542.127-.16.085-.295.2-.406.347a1.68 1.68 0 0 0-.248.508 2.098 2.098 0 0 0-.088.615Zm7.994-2.446h1.07v5.137c0 .475-.102.878-.304 1.21a1.946 1.946 0 0 1-.844.757c-.362.176-.78.264-1.255.264a2.948 2.948 0 0 1-1.387-.371 1.767 1.767 0 0 1-.571-.503l.552-.693c.188.224.397.389.624.493.228.104.468.156.718.156.27 0 .5-.05.689-.151.192-.098.34-.243.444-.435.104-.192.156-.426.156-.703V7.913l.108-1.196Zm-3.59 2.7v-.103c0-.4.05-.765.147-1.093.098-.332.238-.617.42-.855.183-.24.404-.425.664-.552.26-.13.555-.195.884-.195.342 0 .633.062.874.186.244.123.448.3.61.532.163.228.29.501.381.82.095.316.165.668.21 1.055v.327a5.283 5.283 0 0 1-.215 1.035c-.1.313-.234.583-.4.81a1.709 1.709 0 0 1-.615.528c-.241.124-.526.186-.855.186a1.89 1.89 0 0 1-.874-.2 1.99 1.99 0 0 1-.664-.562 2.66 2.66 0 0 1-.42-.85 3.742 3.742 0 0 1-.146-1.069Zm1.178-.103v.103c0 .24.022.465.068.674.049.208.122.392.22.552.1.156.228.28.38.37.157.089.34.133.552.133.277 0 .503-.06.679-.176.18-.118.316-.275.41-.474a2.4 2.4 0 0 0 .205-.674v-.884a2.163 2.163 0 0 0-.122-.537 1.435 1.435 0 0 0-.24-.434.998.998 0 0 0-.38-.293 1.268 1.268 0 0 0-.542-.108c-.212 0-.395.046-.552.137a1.121 1.121 0 0 0-.385.376c-.098.16-.171.345-.22.557a3.009 3.009 0 0 0-.073.678Z" fill="#fff"></path></svg>