<svg width="1em" height="1em" viewBox="0 0 65 18" fill="none" xmlns="http://www.w3.org/2000/svg" style="height: 20px; width: 65px;"><path d="M65 0H0v18h52.456L65 0Z" fill="#217AFF" fill-opacity="0.7"></path><path d="M65 18H0V0h52.456L65 18Z" fill="#217AFF" fill-opacity="0.7"></path><path d="M6.81 8.787H4.998l-.01-.893H6.57c.267 0 .494-.04.68-.118a.94.94 0 0 0 .429-.346c.098-.153.146-.337.146-.552 0-.238-.045-.431-.136-.581a.783.783 0 0 0-.42-.327 2.092 2.092 0 0 0-.713-.103H5.369V12H4.144V4.89h2.412c.39 0 .739.038 1.045.113.309.075.571.192.786.351.218.157.382.355.493.596.114.241.17.528.17.86 0 .293-.07.561-.209.805-.14.241-.347.438-.62.591-.274.153-.614.244-1.02.273l-.391.308ZM6.756 12H4.612l.552-.972h1.592c.277 0 .508-.045.693-.136a.957.957 0 0 0 .415-.386c.095-.166.142-.36.142-.581 0-.231-.04-.432-.122-.6a.841.841 0 0 0-.386-.396c-.176-.095-.405-.142-.688-.142H5.433l.01-.893h1.792l.278.336c.39.013.711.1.962.26a1.5 1.5 0 0 1 .566.62c.124.253.186.527.186.82 0 .452-.1.831-.298 1.137a1.837 1.837 0 0 1-.845.699c-.368.156-.81.234-1.328.234Zm5.918.098c-.39 0-.744-.064-1.06-.19-.312-.131-.579-.312-.8-.543a2.402 2.402 0 0 1-.503-.815 2.855 2.855 0 0 1-.176-1.01v-.196c0-.414.06-.788.18-1.123a2.55 2.55 0 0 1 .504-.86c.214-.24.468-.424.761-.551.293-.127.61-.19.952-.19.378 0 .708.063.992.19.283.127.517.306.703.537.188.228.329.5.42.815.094.316.141.664.141 1.045v.503h-4.082v-.845h2.92v-.093a1.653 1.653 0 0 0-.127-.595 1.013 1.013 0 0 0-.347-.45c-.156-.113-.364-.17-.624-.17-.196 0-.37.042-.523.127-.15.081-.275.2-.376.356-.1.156-.179.345-.234.566a3.182 3.182 0 0 0-.078.738v.195c0 .231.03.446.092.645.065.195.16.366.284.512.123.147.273.262.449.347.176.081.376.122.6.122.283 0 .536-.057.757-.17.221-.115.414-.276.576-.484l.62.6a2.42 2.42 0 0 1-.444.479c-.182.15-.405.272-.669.366a2.66 2.66 0 0 1-.908.142Zm5.996-1.529a.59.59 0 0 0-.088-.317c-.058-.098-.17-.186-.337-.264a3.266 3.266 0 0 0-.722-.215 6.238 6.238 0 0 1-.772-.22 2.448 2.448 0 0 1-.596-.317 1.335 1.335 0 0 1-.385-.44 1.216 1.216 0 0 1-.137-.585c0-.215.047-.418.142-.61.094-.192.23-.362.405-.508.176-.147.389-.262.64-.347.253-.085.537-.127.85-.127.442 0 .821.075 1.137.225.319.146.563.346.732.6.17.251.254.534.254.85h-1.177a.75.75 0 0 0-.107-.39.748.748 0 0 0-.313-.299 1.07 1.07 0 0 0-.527-.117c-.202 0-.37.033-.503.098a.688.688 0 0 0-.293.244.624.624 0 0 0-.044.571.564.564 0 0 0 .176.19c.081.056.192.108.332.157.143.049.322.096.537.142a4.9 4.9 0 0 1 1.04.327c.293.13.518.3.674.508.156.205.234.465.234.78 0 .235-.05.45-.15.645-.099.192-.242.36-.43.503a2.16 2.16 0 0 1-.68.327c-.26.079-.553.118-.878.118-.479 0-.884-.085-1.216-.254a1.939 1.939 0 0 1-.757-.66 1.56 1.56 0 0 1-.254-.84h1.138c.013.219.073.393.18.523.111.127.248.22.41.278.167.056.338.084.513.084.212 0 .39-.028.533-.083a.765.765 0 0 0 .327-.235.56.56 0 0 0 .112-.342Zm4.605-3.852v.86h-2.979v-.86h2.979Zm-2.12-1.294h1.177v5.117c0 .163.023.288.069.376a.366.366 0 0 0 .2.17c.084.03.184.045.298.045a2.346 2.346 0 0 0 .415-.044l.005.898c-.098.03-.212.056-.342.079a2.508 2.508 0 0 1-.44.034c-.27 0-.51-.048-.717-.142a1.057 1.057 0 0 1-.489-.474c-.117-.218-.176-.507-.176-.869v-5.19Zm5.992 5.146a.59.59 0 0 0-.088-.317c-.059-.098-.171-.186-.337-.264a3.263 3.263 0 0 0-.723-.215 6.233 6.233 0 0 1-.771-.22 2.448 2.448 0 0 1-.596-.317 1.337 1.337 0 0 1-.386-.44 1.217 1.217 0 0 1-.136-.585c0-.215.047-.418.141-.61.095-.192.23-.362.405-.508.176-.147.39-.262.64-.347.254-.085.537-.127.85-.127.442 0 .822.075 1.137.225.32.146.563.346.733.6.169.251.254.534.254.85h-1.177c0-.14-.036-.27-.108-.39a.748.748 0 0 0-.312-.299 1.071 1.071 0 0 0-.527-.117c-.202 0-.37.033-.503.098a.688.688 0 0 0-.293.244.623.623 0 0 0-.044.571.563.563 0 0 0 .176.19c.081.056.192.108.332.157.143.049.322.096.537.142a4.9 4.9 0 0 1 1.04.327c.293.13.517.3.674.508.156.205.234.465.234.78 0 .235-.05.45-.151.645-.098.192-.241.36-.43.503-.189.14-.415.25-.679.327-.26.079-.553.118-.879.118-.478 0-.884-.085-1.215-.254a1.939 1.939 0 0 1-.757-.66 1.56 1.56 0 0 1-.254-.84h1.137c.013.219.074.393.181.523.11.127.248.22.41.278.166.056.337.084.513.084.212 0 .389-.028.532-.083a.764.764 0 0 0 .327-.235.559.559 0 0 0 .113-.342Zm4.511 1.529c-.39 0-.744-.064-1.06-.19-.312-.131-.579-.312-.8-.543a2.402 2.402 0 0 1-.503-.815 2.855 2.855 0 0 1-.176-1.01v-.196c0-.414.06-.788.181-1.123.12-.336.288-.622.503-.86a2.16 2.16 0 0 1 .762-.551c.293-.127.61-.19.952-.19.377 0 .708.063.991.19.283.127.517.306.703.537.189.228.329.5.42.815.094.316.142.664.142 1.045v.503H29.69v-.845h2.92v-.093a1.653 1.653 0 0 0-.127-.595 1.013 1.013 0 0 0-.347-.45c-.156-.113-.365-.17-.625-.17-.195 0-.37.042-.523.127-.15.081-.275.2-.376.356-.1.156-.179.345-.234.566a3.182 3.182 0 0 0-.078.738v.195c0 .231.03.446.093.645.065.195.16.366.283.512.124.147.273.262.45.347.175.081.375.122.6.122.283 0 .535-.057.757-.17.22-.115.413-.276.576-.484l.62.6a2.417 2.417 0 0 1-.444.479c-.183.15-.406.272-.67.366-.26.095-.563.142-.908.142ZM35.95 4.5V12H34.77V4.5h1.181Zm2.55 0V12h-1.182V4.5h1.181Zm3.617 7.598c-.39 0-.743-.064-1.06-.19-.312-.131-.579-.312-.8-.543a2.4 2.4 0 0 1-.503-.815 2.855 2.855 0 0 1-.176-1.01v-.196c0-.414.06-.788.18-1.123a2.55 2.55 0 0 1 .504-.86 2.16 2.16 0 0 1 .762-.551c.293-.127.61-.19.952-.19.377 0 .708.063.99.19.284.127.518.306.704.537.189.228.329.5.42.815.094.316.142.664.142 1.045v.503H40.15v-.845h2.92v-.093a1.65 1.65 0 0 0-.127-.595 1.012 1.012 0 0 0-.347-.45c-.156-.113-.365-.17-.625-.17-.195 0-.37.042-.523.127-.15.081-.275.2-.376.356-.1.156-.179.345-.234.566a3.187 3.187 0 0 0-.078.738v.195c0 .231.03.446.093.645.065.195.16.366.283.512.124.147.273.262.45.347.175.081.375.122.6.122.283 0 .535-.057.757-.17.22-.115.413-.276.576-.484l.62.6a2.417 2.417 0 0 1-.445.479c-.182.15-.405.272-.669.366a2.66 2.66 0 0 1-.908.142Zm4.214-4.375V12h-1.177V6.717h1.123l.054 1.006Zm1.616-1.04-.01 1.093a3.062 3.062 0 0 0-.479-.04c-.2.001-.378.03-.531.09a1.002 1.002 0 0 0-.62.624c-.056.15-.088.318-.098.503l-.268.02c0-.332.032-.64.097-.923.065-.283.163-.532.293-.747.134-.215.3-.383.498-.503.202-.12.435-.18.699-.18a1.457 1.457 0 0 1 .42.063Z" fill="#fff"></path></svg>