<svg width="1em" height="1em" viewBox="0 0 65 18" fill="none" xmlns="http://www.w3.org/2000/svg" style="height: 20px; width: 65px;"><path d="M65 0H0v18h52.456L65 0Z" fill="#47AB3B" fill-opacity="0.7"></path><path d="M65 18H0V0h52.456L65 18Z" fill="#47AB3B" fill-opacity="0.7"></path><path d="M9.783 4.89V12H8.558L5.369 6.907V12H4.144V4.89h1.225l3.199 5.103V4.891h1.215Zm3.672 7.208c-.39 0-.744-.064-1.06-.19-.312-.131-.579-.312-.8-.543a2.403 2.403 0 0 1-.503-.815 2.857 2.857 0 0 1-.176-1.01v-.196c0-.414.06-.788.18-1.123a2.55 2.55 0 0 1 .504-.86 2.16 2.16 0 0 1 .761-.551c.293-.127.61-.19.953-.19.377 0 .708.063.99.19.284.127.518.306.704.537.189.228.329.5.42.815.094.316.141.664.141 1.045v.503h-4.082v-.845h2.92v-.093a1.65 1.65 0 0 0-.127-.595 1.012 1.012 0 0 0-.346-.45c-.156-.113-.365-.17-.625-.17-.196 0-.37.042-.523.127-.15.081-.275.2-.376.356-.1.156-.179.345-.234.566a3.187 3.187 0 0 0-.078.738v.195c0 .231.03.446.093.645.065.195.16.366.283.512.123.147.273.262.449.347.176.081.376.122.6.122.284 0 .536-.057.757-.17.222-.115.414-.276.577-.484l.62.6a2.417 2.417 0 0 1-.445.479c-.182.15-.405.272-.669.366a2.66 2.66 0 0 1-.908.142Zm4.468-1.27 1.22-4.111h.753l-.205 1.23L18.46 12h-.675l.137-1.172Zm-.718-4.111.952 4.13.078 1.153h-.751l-1.431-5.283h1.152Zm3.833 4.082.923-4.082h1.148L21.683 12h-.752l.107-1.201Zm-1.015-4.082 1.206 4.062L21.38 12h-.674l-1.245-4.058-.205-1.225h.767Z" fill="#fff"></path></svg>