<svg width="283" height="269" viewBox="0 0 283 269" fill="none" xmlns="http://www.w3.org/2000/svg">
<rect x="32" y="107" width="208" height="25" rx="12.5" fill="#E4E4E4"/>
<rect x="76" y="129" width="207" height="25" rx="12.5" fill="#E4E4E4"/>
<rect x="37" y="154" width="207" height="25" rx="12.5" fill="#E4E4E4"/>
<rect x="21" y="179" width="207" height="25" rx="12.5" fill="#E4E4E4"/>
<rect x="64" y="201" width="208" height="25" rx="12.5" fill="#E4E4E4"/>
<rect x="26" y="226" width="207" height="25" rx="12.5" fill="#E4E4E4"/>
<g filter="url(#filter0_i_8767_123301)">
<path d="M90.4971 256.812V156.392H202.917V256.813C202.917 263.44 197.545 268.813 190.917 268.813H102.497C95.8697 268.813 90.4971 263.44 90.4971 256.812Z" fill="url(#paint0_linear_8767_123301)"/>
</g>
<path d="M125.386 168.797V143.599C125.386 131.824 134.932 122.278 146.707 122.278V122.278C158.483 122.278 168.028 131.824 168.028 143.599V168.797" stroke="#4B4A4A" stroke-width="11" stroke-linecap="round"/>
<path d="M146.707 197.484C143.717 197.484 140.794 198.37 138.308 200.032C135.822 201.693 133.884 204.054 132.739 206.817C131.595 209.579 131.296 212.619 131.879 215.552C132.462 218.485 133.902 221.178 136.017 223.293C138.131 225.407 140.825 226.847 143.758 227.43C146.69 228.014 149.73 227.714 152.493 226.57C155.255 225.426 157.617 223.488 159.278 221.002C160.939 218.516 161.826 215.592 161.826 212.602C161.826 208.593 160.233 204.747 157.398 201.912C154.562 199.077 150.717 197.484 146.707 197.484V197.484ZM150.286 203.973L150.41 204.057C151.083 204.492 151.623 205.104 151.972 205.825C152.124 206.168 152.223 206.532 152.265 206.905C152.316 207.329 152.297 207.759 152.209 208.178C152.13 208.561 151.959 208.919 151.712 209.222C151.449 209.539 151.097 209.769 150.701 209.881C150.279 209.997 149.832 209.987 149.415 209.851C149.01 209.712 148.66 209.445 148.42 209.089C148.194 208.738 148.082 208.326 148.099 207.909C148.115 207.515 148.255 207.136 148.501 206.828C148.643 206.649 148.804 206.488 148.983 206.346C149.173 206.196 149.347 206.027 149.502 205.841C149.748 205.542 149.899 205.177 149.938 204.791C149.96 204.615 149.945 204.436 149.893 204.266C149.84 204.096 149.752 203.939 149.634 203.806C149.499 203.632 149.329 203.488 149.134 203.384C149.542 203.531 149.929 203.729 150.286 203.975L150.253 203.954L150.286 203.973ZM144.565 218.377C144.423 218.555 144.261 218.717 144.083 218.859C143.892 219.007 143.718 219.176 143.564 219.362C143.317 219.661 143.166 220.027 143.128 220.413C143.105 220.589 143.12 220.769 143.172 220.939C143.224 221.109 143.312 221.265 143.43 221.398C143.565 221.573 143.736 221.717 143.932 221.819C143.523 221.674 143.135 221.475 142.778 221.228L142.654 221.146C141.981 220.711 141.442 220.099 141.093 219.378C140.94 219.035 140.841 218.671 140.799 218.298C140.749 217.874 140.768 217.444 140.856 217.025C140.934 216.642 141.105 216.284 141.352 215.982C141.615 215.664 141.968 215.434 142.365 215.322C142.787 215.206 143.234 215.217 143.65 215.354C144.057 215.491 144.406 215.758 144.645 216.114C144.871 216.466 144.983 216.878 144.967 217.295C144.95 217.689 144.81 218.068 144.565 218.377ZM152.302 216.913C152.269 217.732 152.049 218.532 151.659 219.253C151.256 219.972 150.682 220.579 149.986 221.021C150.333 220.691 150.631 220.312 150.868 219.896C151.017 219.632 151.099 219.337 151.109 219.034C151.118 218.732 151.055 218.432 150.923 218.16C149.589 215.153 143.787 213.782 142.341 212.3C141.881 211.869 141.505 211.356 141.232 210.788C140.876 209.976 140.722 209.091 140.785 208.207C140.817 207.388 141.037 206.588 141.428 205.868C141.825 205.147 142.396 204.537 143.09 204.092C142.741 204.422 142.444 204.801 142.206 205.217C142.057 205.481 141.975 205.777 141.966 206.08C141.956 206.382 142.021 206.682 142.153 206.955C143.491 209.968 149.292 211.337 150.738 212.821C151.201 213.252 151.58 213.765 151.855 214.335C152.209 215.144 152.363 216.028 152.302 216.91V216.913Z" fill="url(#paint1_linear_8767_123301)"/>
<rect x="188" width="4" height="74" rx="2" transform="rotate(30 188 0)" fill="#C4C4C4"/>
<rect x="192.011" y="46" width="4" height="38.9992" rx="2" transform="rotate(48.0641 192.011 46)" fill="#C4C4C4"/>
<rect x="129" y="6.48633" width="4" height="38.9992" rx="2" transform="rotate(-6.97976 129 6.48633)" fill="#C4C4C4"/>
<rect x="10" y="107" width="1" height="10" rx="0.5" fill="#C4C4C4"/>
<rect x="10" y="118" width="1" height="10" rx="0.5" fill="#C4C4C4"/>
<rect x="10" y="117" width="1" height="10" rx="0.5" transform="rotate(90 10 117)" fill="#C4C4C4"/>
<rect x="11" y="118" width="1" height="10" rx="0.5" transform="rotate(-90 11 118)" fill="#C4C4C4"/>
<rect x="31.238" y="83" width="0.52381" height="5.2381" rx="0.261905" fill="#C4C4C4"/>
<rect x="31.238" y="88.7619" width="0.52381" height="5.2381" rx="0.261905" fill="#C4C4C4"/>
<rect x="31.238" y="88.2381" width="0.52381" height="5.2381" rx="0.261905" transform="rotate(90 31.238 88.2381)" fill="#C4C4C4"/>
<rect x="31.762" y="88.7619" width="0.523809" height="5.2381" rx="0.261905" transform="rotate(-90 31.762 88.7619)" fill="#C4C4C4"/>
<rect x="134.007" y="48.0479" width="4" height="14.2545" rx="2" transform="rotate(-6.97976 134.007 48.0479)" fill="#C4C4C4"/>
<rect x="84" y="40.2334" width="4" height="15.8645" rx="2" transform="rotate(-33.9354 84 40.2334)" fill="#C4C4C4"/>
<rect x="94.7661" y="56.3789" width="4" height="36.7111" rx="2" transform="rotate(-33.9354 94.7661 56.3789)" fill="#C4C4C4"/>
<circle cx="64" cy="68" r="2" fill="#C4C4C4"/>
<circle cx="64" cy="77" r="2" fill="#C4C4C4"/>
<circle cx="68.5" cy="72.5" r="2.5" fill="#C4C4C4"/>
<circle cx="59.5" cy="72.5" r="2.5" fill="#C4C4C4"/>
<circle cx="248.6" cy="69.4" r="1.7" fill="#C4C4C4"/>
<circle cx="250.3" cy="74.5" r="1.7" fill="#C4C4C4"/>
<circle cx="236.7" cy="74.5" r="1.7" fill="#C4C4C4"/>
<circle cx="238.4" cy="69.4" r="1.7" fill="#C4C4C4"/>
<circle cx="238.4" cy="79.6" r="1.7" fill="#C4C4C4"/>
<circle cx="243.5" cy="81.3" r="1.7" fill="#C4C4C4"/>
<circle cx="248.6" cy="79.6" r="1.7" fill="#C4C4C4"/>
<circle cx="243.5" cy="67.7" r="1.7" fill="#C4C4C4"/>
<circle cx="114.2" cy="14.8001" r="0.9" fill="#C4C4C4"/>
<circle cx="115.1" cy="17.4999" r="0.9" fill="#C4C4C4"/>
<circle cx="107.9" cy="17.4999" r="0.9" fill="#C4C4C4"/>
<circle cx="108.8" cy="14.8001" r="0.9" fill="#C4C4C4"/>
<circle cx="108.8" cy="20.2002" r="0.9" fill="#C4C4C4"/>
<circle cx="111.5" cy="21.0998" r="0.9" fill="#C4C4C4"/>
<circle cx="114.2" cy="20.2002" r="0.9" fill="#C4C4C4"/>
<circle cx="111.5" cy="13.9" r="0.9" fill="#C4C4C4"/>
<defs>
<filter id="filter0_i_8767_123301" x="90.4971" y="155.392" width="121.42" height="113.42" filterUnits="userSpaceOnUse" color-interpolation-filters="sRGB">
<feFlood flood-opacity="0" result="BackgroundImageFix"/>
<feBlend mode="normal" in="SourceGraphic" in2="BackgroundImageFix" result="shape"/>
<feColorMatrix in="SourceAlpha" type="matrix" values="0 0 0 0 0 0 0 0 0 0 0 0 0 0 0 0 0 0 127 0" result="hardAlpha"/>
<feOffset dx="9" dy="-1"/>
<feGaussianBlur stdDeviation="11.5"/>
<feComposite in2="hardAlpha" operator="arithmetic" k2="-1" k3="1"/>
<feColorMatrix type="matrix" values="0 0 0 0 0.0958333 0 0 0 0 0.0958333 0 0 0 0 0.0958333 0 0 0 1 0"/>
<feBlend mode="normal" in2="shape" result="effect1_innerShadow_8767_123301"/>
</filter>
<linearGradient id="paint0_linear_8767_123301" x1="146.707" y1="156.638" x2="146.707" y2="268.813" gradientUnits="userSpaceOnUse">
<stop stop-color="#3D3D3D"/>
<stop offset="1" stop-color="#0E0E0E"/>
</linearGradient>
<linearGradient id="paint1_linear_8767_123301" x1="146.707" y1="197.484" x2="156.679" y2="234.154" gradientUnits="userSpaceOnUse">
<stop stop-color="white"/>
<stop offset="1" stop-color="#FBFBFB" stop-opacity="0.29"/>
</linearGradient>
</defs>
</svg>
