<svg xmlns="http://www.w3.org/2000/svg" viewBox="0 0 30 31" xml:space="preserve" width="1em" height="1em" style="font-size: 45px;"><path d="M8 .5h14c4.1 0 7.5 3.4 7.5 7.5v14c0 4.1-3.4 7.5-7.5 7.5H8C3.9 29.5.5 26.1.5 22V8C.5 3.9 3.9.5 8 .5z" style="fill: rgb(255, 255, 255); stroke: rgb(0, 0, 0);"></path><path d="M21.3 10.8c.4.4.7.9.9 1.4.2.5.3 1.1.3 1.6 0 .6-.1 1.1-.3 1.6-.2.5-.5 1-.9 1.4l-5.6 5.6s-.1 0-.1.1h-.2s-.1 0-.1-.1l-5.6-5.6C9 16 8.5 15 8.5 13.9c0-1.1.3-2.1 1-2.9.7-.8 1.7-1.3 2.7-1.5 1.1-.1 2.1.2 3 .8l.3.2.3-.2c.8-.6 1.8-.9 2.8-.8 1.1.1 2 .5 2.7 1.3z" style="stroke: rgb(0, 0, 0);"></path></svg>