<svg width="1em" height="1em" viewBox="0 0 40 40" fill="none" xmlns="http://www.w3.org/2000/svg" style="height: 40px; width: 40px;"><path d="M40 20c0 11.046-8.954 20-20 20S0 31.046 0 20 8.954 0 20 0s20 8.954 20 20Z" fill="#fff"></path><path fill-rule="evenodd" clip-rule="evenodd" d="M20 39c10.493 0 19-8.507 19-19S30.493 1 20 1 1 9.507 1 20s8.507 19 19 19Zm0 1c11.046 0 20-8.954 20-20S31.046 0 20 0 0 8.954 0 20s8.954 20 20 20Z" fill="#DBDBDB"></path><path d="M26 15h-.35a3.45 3.45 0 0 0 .35-1.5 3.49 3.49 0 0 0-6-2.44 3.491 3.491 0 0 0-6 2.44 3.45 3.45 0 0 0 .35 1.5H14a3 3 0 0 0-3 3v2a1 1 0 0 0 1 1h1v6a3 3 0 0 0 3 3h8a3 3 0 0 0 3-3v-6h1a1 1 0 0 0 1-1v-2a3 3 0 0 0-3-3Zm-7 13h-3a1 1 0 0 1-1-1v-6h4v7Zm0-9h-6v-1a1 1 0 0 1 1-1h5v2Zm0-4h-1.5a1.5 1.5 0 1 1 1.5-1.5V15Zm2-1.5a1.5 1.5 0 1 1 1.5 1.5H21v-1.5ZM25 27a1 1 0 0 1-1 1h-3v-7h4v6Zm2-8h-6v-2h5a1 1 0 0 1 1 1v1Z" fill="#212121"></path></svg>