<svg width="1em" height="1em" viewBox="0 0 40 40" fill="none" xmlns="http://www.w3.org/2000/svg" style="height: 40px; width: 40px;"><path d="M40 20c0 11.046-8.954 20-20 20S0 31.046 0 20 8.954 0 20 0s20 8.954 20 20Z" fill="#fff"></path><path fill-rule="evenodd" clip-rule="evenodd" d="M20 39c10.493 0 19-8.507 19-19S30.493 1 20 1 1 9.507 1 20s8.507 19 19 19Zm0 1c11.046 0 20-8.954 20-20S31.046 0 20 0 0 8.954 0 20s8.954 20 20 20Z" fill="#DBDBDB"></path><path d="M28.163 12.815a6.318 6.318 0 0 0-3.965-1.786 6.349 6.349 0 0 0-4.19 1.187 6.351 6.351 0 0 0-8.49.924 6.087 6.087 0 0 0-1.513 4.255 6.104 6.104 0 0 0 1.846 4.127l7.446 7.313a.999.999 0 0 0 .71.29 1.016 1.016 0 0 0 .71-.29l7.446-7.313a6.148 6.148 0 0 0 1.36-1.997 6.059 6.059 0 0 0 0-4.713 6.15 6.15 0 0 0-1.36-1.997Zm-1.41 7.323-6.746 6.616-6.747-6.616a4.179 4.179 0 0 1-1.164-2.144 4.13 4.13 0 0 1 .239-2.418c.32-.765.863-1.42 1.561-1.884a4.333 4.333 0 0 1 2.363-.72 4.287 4.287 0 0 1 2.998 1.227 1 1 0 0 0 .71.29 1.014 1.014 0 0 0 .71-.29 4.316 4.316 0 0 1 2.956-1.02 4.304 4.304 0 0 1 2.869 1.236 4.156 4.156 0 0 1 1.236 2.828 4.146 4.146 0 0 1-1.064 2.895h.08Z" fill="#FC2779"></path></svg>