<svg width="1em" height="1em" viewBox="0 0 40 40" fill="none" xmlns="http://www.w3.org/2000/svg" style="height: 40px; width: 40px;"><path d="M40 20c0 11.046-8.954 20-20 20S0 31.046 0 20 8.954 0 20 0s20 8.954 20 20Z" fill="#fff"></path><path fill-rule="evenodd" clip-rule="evenodd" d="M20 39c10.493 0 19-8.507 19-19S30.493 1 20 1 1 9.507 1 20s8.507 19 19 19Zm0 1c11.046 0 20-8.954 20-20S31.046 0 20 0 0 8.954 0 20s8.954 20 20 20Z" fill="#DBDBDB"></path><path d="M28.857 17.64a8.448 8.448 0 0 0-13.08-6.232 8.508 8.508 0 0 0-3.737 6.232 8.41 8.41 0 0 0 2.445 6.788l5.268 5.278a.994.994 0 0 0 1.411 0l5.248-5.278a8.409 8.409 0 0 0 2.445-6.788Zm-3.837 5.387-4.572 4.572-4.571-4.572a6.45 6.45 0 0 1-1.859-5.188 6.529 6.529 0 0 1 2.872-4.8 6.43 6.43 0 0 1 7.117 0 6.53 6.53 0 0 1 2.872 4.78 6.45 6.45 0 0 1-1.859 5.208Zm-4.572-2.038a2.484 2.484 0 1 1 0-4.968 2.484 2.484 0 0 1 0 4.968Z" fill="#212121"></path></svg>