<svg width="1em" height="1em" viewBox="0 0 40 40" fill="none" xmlns="http://www.w3.org/2000/svg" style="height: 40px; width: 40px;"><path d="M40 20c0 11.046-8.954 20-20 20S0 31.046 0 20 8.954 0 20 0s20 8.954 20 20Z" fill="#fff"></path><path fill-rule="evenodd" clip-rule="evenodd" d="M20 39c10.493 0 19-8.507 19-19S30.493 1 20 1 1 9.507 1 20s8.507 19 19 19Zm0 1c11.046 0 20-8.954 20-20S31.046 0 20 0 0 8.954 0 20s8.954 20 20 20Z" fill="#DBDBDB"></path><path d="M29.723 17.908c-1.17-5.392-6.243-8.751-11.681-7.724-4.435.84-7.923 4.685-8.039 9.558-.039 1.553.3 3.028.954 4.436a.915.915 0 0 1 .055.53c-.305 1.559-.638 3.106-.948 4.664-.1.508.122.712.62.596 1.52-.359 3.033-.723 4.558-1.071a1.02 1.02 0 0 1 .588.06c1.88.83 3.825 1.094 5.86.74A10.035 10.035 0 0 0 30 19.909c-.094-.663-.133-1.343-.277-2Zm-8.41 9.618c-1.741.293-3.404.04-4.968-.79a1.422 1.422 0 0 0-1.12-.127c-.71.2-1.435.348-2.15.514-.078.017-.161.028-.294.05.188-.917.36-1.779.548-2.64.061-.283.05-.531-.1-.796a7.759 7.759 0 0 1-.892-2.509c-.532-3.116.848-6.182 3.548-7.872 4.568-2.857 10.705-.188 11.709 5.088.798 4.265-2.035 8.37-6.281 9.082Z" fill="#212121"></path><path d="M24.678 22.002c-.41-.122-.837-.188-1.23-.348-.705-.293-1.254-.171-1.73.436-.267.337-.55.37-.92.16a9.935 9.935 0 0 1-3.095-2.723c-.249-.332-.221-.58.023-.912.122-.166.294-.315.366-.503.083-.22.16-.502.088-.701a19.545 19.545 0 0 0-.831-1.879c-.216-.442-.727-.558-1.11-.248a5.61 5.61 0 0 0-.725.723 2.322 2.322 0 0 0-.582 1.663 4.52 4.52 0 0 0 .676 2.238c1.142 1.862 2.705 3.282 4.646 4.282.715.37 1.491.58 2.45.574.804.055 1.536-.326 2.112-1.055.111-.138.217-.282.316-.425.377-.558.189-1.094-.454-1.282Z" fill="#212121"></path></svg>